<?xml version="1.0" standalone="no"?>
<!DOCTYPE svg PUBLIC "-//W3C//DTD SVG 20010904//EN"
 "http://www.w3.org/TR/2001/REC-SVG-20010904/DTD/svg10.dtd">
<svg version="1.0" xmlns="http://www.w3.org/2000/svg"
 width="320.000000pt" height="320.000000pt" viewBox="0 0 320.000000 320.000000"
 preserveAspectRatio="xMidYMid meet">
<metadata>
Created by potrace 1.14, written by Peter Selinger 2001-2017
</metadata>
<g transform="translate(0.000000,320.000000) scale(0.100000,-0.100000)"
fill="#000000" stroke="none">
<path d="M193 2207 l-89 -291 -32 -8 c-58 -15 -87 -120 -55 -198 12 -29 12
-42 2 -73 -7 -20 -10 -39 -8 -41 2 -2 103 -34 224 -71 121 -36 238 -72 260
-80 l40 -13 1 -191 c1 -105 4 -194 7 -197 3 -4 110 -6 236 -5 179 0 231 -3
231 -12 0 -7 -9 -13 -20 -13 -11 0 -20 4 -20 9 0 4 -10 1 -21 -7 -12 -8 -28
-12 -37 -9 -9 4 -13 2 -9 -4 8 -13 -27 -46 -37 -36 -4 5 -7 1 -6 -7 4 -27 0
-38 -16 -44 -10 -4 -15 0 -13 12 4 43 -2 69 -16 69 -8 0 -15 -3 -16 -6 -16
-139 -52 -209 -129 -253 -22 -13 -40 -25 -40 -28 0 -3 45 -6 100 -6 l100 0 0
32 c0 39 23 62 45 44 8 -7 13 -16 10 -20 -3 -4 6 -11 20 -14 14 -4 25 -14 25
-22 0 -13 3 -14 13 -5 10 8 19 7 32 -3 17 -12 21 -12 30 1 10 13 13 13 28 -2
9 -9 17 -12 17 -6 0 6 9 11 20 11 11 0 20 -6 20 -12 0 -9 3 -10 8 -2 9 14 152
15 152 0 0 -6 5 -5 12 2 15 15 48 16 48 0 0 -6 6 -4 13 6 13 17 14 17 30 1 9
-9 17 -12 17 -6 0 15 33 14 48 -1 9 -9 12 -9 12 0 0 7 9 12 20 12 11 0 20 -6
20 -12 0 -9 3 -9 8 -2 14 20 42 25 43 6 0 -10 3 -12 6 -4 6 15 35 16 51 0 9
-9 12 -9 12 0 0 16 37 15 43 0 4 -10 6 -10 6 0 1 15 37 16 46 1 5 -6 12 -4 20
7 6 9 19 15 27 12 8 -4 20 2 26 13 7 11 18 16 27 13 11 -5 13 -2 9 9 -3 10 2
21 14 28 12 8 17 19 14 32 -3 10 1 23 9 28 9 6 10 12 4 17 -15 11 -17 32 -3
32 6 0 4 6 -6 13 -11 8 -17 20 -14 28 3 8 -5 19 -16 25 -12 6 -20 16 -18 24 2
8 -3 10 -13 7 -8 -4 -23 3 -34 14 -12 13 -21 17 -26 10 -4 -8 -12 -8 -26 -1
-13 7 -25 7 -38 0 -14 -7 -22 -7 -26 0 -4 6 -10 8 -15 5 -5 -3 -11 -1 -15 4
-3 6 41 10 117 9 121 -1 127 -2 318 -60 213 -65 251 -77 444 -136 71 -21 125
-41 120 -43 -5 -3 -46 -4 -91 -4 l-83 2 0 -49 0 -48 395 0 395 0 0 48 0 48
-97 -1 c-140 -1 -133 -5 -133 75 0 79 -18 128 -60 163 l-30 26 84 273 c45 150
86 282 90 294 6 18 -3 23 -86 48 -51 16 -111 34 -133 41 -22 7 -87 28 -145 45
-58 18 -139 43 -180 55 -201 63 -739 228 -765 235 -16 4 -90 27 -162 49 -73
23 -190 59 -260 80 -128 39 -526 161 -743 228 -63 19 -142 43 -175 53 -33 10
-74 23 -91 28 l-32 10 -89 -291z m232 193 c8 -13 -5 -13 -25 0 -13 8 -13 10 2
10 9 0 20 -4 23 -10z m65 -19 c0 -4 -11 -6 -25 -3 -14 2 -25 6 -25 8 0 2 11 4
25 4 14 0 25 -4 25 -9z m100 -32 c10 -6 4 -7 -15 -3 -16 4 -37 11 -45 15 -10
6 -4 7 15 3 17 -4 37 -11 45 -15z m95 -29 c13 -6 15 -9 5 -9 -8 0 -22 4 -30 9
-18 12 -2 12 25 0z m-91 -81 c119 -36 184 -64 173 -75 -2 -2 -87 21 -188 52
-101 31 -199 60 -216 65 -31 9 -40 19 -28 31 3 3 34 -3 68 -14 34 -11 120 -37
191 -59z m141 61 c3 -6 -1 -7 -9 -4 -18 7 -21 14 -7 14 6 0 13 -4 16 -10z
m115 -30 c30 -10 50 -19 44 -19 -14 -1 -144 40 -144 45 0 6 32 -3 100 -26z
m100 -30 c13 -9 13 -10 0 -10 -8 0 -22 5 -30 10 -13 9 -13 10 0 10 8 0 22 -5
30 -10z m80 -25 c19 -7 28 -13 20 -13 -8 0 -31 6 -50 13 -19 7 -28 13 -20 13
8 0 31 -6 50 -13z m152 -46 c55 -17 98 -32 96 -34 -2 -3 -51 11 -108 29 -58
19 -101 34 -96 35 5 1 54 -13 108 -30z m-299 -18 c147 -46 303 -94 462 -142
213 -64 225 -68 225 -85 0 -10 -7 -11 -27 -4 -16 5 -82 26 -148 46 -66 20
-178 54 -250 76 -71 21 -172 52 -224 68 -51 15 -100 35 -109 44 -22 21 -6 21
71 -3z m712 -113 c4 -4 -37 7 -92 23 -54 16 -122 37 -150 45 -29 8 -55 19 -57
23 -6 9 289 -81 299 -91z m-1222 8 c45 -13 150 -45 232 -71 83 -25 202 -62
265 -81 199 -61 207 -64 226 -86 11 -12 15 -19 9 -16 -5 3 -125 40 -265 83
-140 42 -302 92 -360 110 -58 19 -131 41 -162 50 -38 11 -58 22 -58 32 0 10 6
13 16 9 8 -3 52 -17 97 -30z m1460 -76 c42 -13 75 -25 73 -27 -5 -6 -176 47
-176 54 0 3 6 3 13 0 6 -2 47 -14 90 -27z m-1463 -52 c180 -55 455 -140 515
-158 33 -10 96 -29 140 -43 44 -14 113 -35 153 -47 40 -12 71 -24 69 -26 -4
-4 -294 82 -647 192 -143 45 -184 58 -286 87 -28 8 -60 20 -70 26 -22 14 -21
14 126 -31z m1631 -6 c-7 -2 -18 1 -23 6 -8 8 -4 9 13 5 13 -4 18 -8 10 -11z
m-72 -82 c71 -22 133 -48 145 -60 l21 -21 -30 10 c-81 27 -301 95 -312 97 -32
6 -83 26 -83 33 0 18 14 18 73 -1 34 -11 118 -37 186 -58z m137 64 c19 -15 19
-15 -1 -6 -11 5 -27 12 -35 15 -13 5 -13 6 1 6 8 1 24 -6 35 -15z m-1781 -16
c12 -11 -42 0 -65 14 -10 6 -3 7 20 2 19 -3 40 -10 45 -16z m1891 -14 c31 -9
54 -18 51 -20 -5 -6 -137 35 -137 42 0 4 7 3 15 0 9 -3 41 -13 71 -22z m-2105
-56 c-11 -31 -17 -59 -14 -62 4 -3 1 -6 -5 -6 -28 0 -9 112 22 132 18 12 17
-5 -3 -64z m271 13 c259 -68 399 -127 429 -182 10 -19 6 -20 -93 -19 -158 2
-146 5 -141 -34 l4 -35 -38 10 c-64 18 -356 108 -360 112 -2 2 9 43 24 90 20
66 31 87 44 87 10 0 69 -13 131 -29z m1925 13 c-3 -3 -12 -4 -19 -1 -8 3 -5 6
6 6 11 1 17 -2 13 -5z m171 -49 c46 -14 82 -28 80 -30 -2 -2 -40 7 -83 21 -44
14 -88 27 -99 30 -10 2 -21 6 -25 9 -9 10 38 -1 127 -30z m-1178 -11 c47 -14
119 -36 160 -48 41 -13 75 -28 75 -35 0 -19 6 -20 -227 54 -66 21 -119 43
-122 52 -4 10 -1 13 12 9 9 -3 55 -17 102 -32z m1025 -53 c240 -73 369 -112
395 -121 14 -5 71 -23 128 -40 71 -22 102 -36 102 -47 0 -10 -6 -13 -16 -9
-21 8 -334 106 -354 111 -8 2 -51 15 -95 28 -44 14 -132 41 -195 61 -81 25
-119 41 -128 56 -12 19 -11 20 5 12 10 -5 81 -28 158 -51z m-1480 0 c244 -75
300 -92 303 -96 2 -2 -62 -4 -142 -4 -144 0 -147 1 -156 23 -11 30 -65 75
-117 98 -57 25 -54 31 5 12 26 -8 74 -23 107 -33z m1807 11 c32 -10 60 -21 64
-25 6 -6 -33 4 -126 33 -14 5 -18 9 -10 9 8 0 41 -7 72 -17z m118 -38 c0 -2
-9 -4 -20 -4 -11 0 -20 4 -20 9 0 5 9 7 20 4 11 -3 20 -7 20 -9z m45 -14 c13
-6 15 -9 5 -9 -8 0 -22 4 -30 9 -18 12 -2 12 25 0z m-1010 -60 c33 -10 85 -26
115 -35 30 -9 96 -29 145 -45 50 -15 144 -45 210 -65 152 -46 172 -54 179 -70
3 -8 0 -12 -7 -10 -7 2 -66 20 -132 40 -66 20 -176 54 -245 75 -69 21 -192 59
-274 85 -83 25 -152 47 -154 50 -2 2 -1 8 2 13 4 6 24 4 53 -5 27 -8 75 -23
108 -33z m1098 35 c42 -12 91 -34 77 -34 -3 0 -36 10 -75 24 -77 26 -78 33 -2
10z m-1460 -52 c31 -9 57 -20 57 -24 0 -8 -136 34 -147 46 -5 4 1 5 12 1 11
-4 46 -14 78 -23z m257 -81 c36 -11 103 -32 150 -46 47 -14 159 -48 250 -76
91 -29 207 -63 258 -78 50 -15 92 -30 92 -34 0 -4 -12 -3 -27 2 -49 15 -357
110 -403 124 -307 92 -397 121 -405 129 -7 7 -5 8 5 5 8 -3 44 -14 80 -26z
m930 -155 c63 -20 144 -44 179 -54 36 -10 67 -25 69 -32 4 -13 -17 -12 -63 2
-5 2 -30 9 -55 16 -128 35 -237 75 -255 93 -13 14 -15 19 -5 16 8 -3 67 -22
130 -41z m-660 9 c30 -9 75 -23 100 -31 25 -8 180 -55 345 -105 401 -123 406
-124 406 -135 1 -11 -11 -18 -56 -34 -52 -19 -115 -88 -115 -125 0 -27 -17
-27 -102 0 -72 22 -315 97 -403 123 -191 59 -241 75 -247 80 -4 3 -8 42 -9 86
-2 143 0 168 14 163 6 -3 37 -13 67 -22z m570 -111 c30 -9 59 -21 65 -26 5 -5
-23 2 -62 15 -39 13 -74 22 -77 18 -3 -3 -6 0 -6 7 0 7 6 11 13 9 6 -3 37 -13
67 -23z m215 -65 c39 -13 75 -27 80 -32 6 -6 1 -6 -15 0 -14 5 -52 17 -85 27
-33 10 -64 22 -70 27 -6 6 -4 7 5 4 8 -2 47 -14 85 -26z m-1655 -174 c0 -9 -7
-12 -20 -9 -11 3 -20 9 -20 14 0 5 9 9 20 9 11 0 20 -6 20 -14z m-210 -141 c0
-8 -4 -15 -10 -15 -5 0 -10 7 -10 15 0 8 5 15 10 15 6 0 10 -7 10 -15z"/>
</g>
</svg>
